<?xml version="1.0" encoding="UTF-8"?>
<svg width="58px" height="100px" viewBox="0 0 58 100" version="1.1" xmlns="http://www.w3.org/2000/svg" xmlns:xlink="http://www.w3.org/1999/xlink">
    <!-- Generator: Sketch 49.1 (51147) - http://www.bohemiancoding.com/sketch -->
    <title>Symbol</title>
    <desc>Created with Sketch.</desc>
    <defs>
        <polygon id="path-1" points="0.788486093 0.538675409 57.0452023 0.538675409 57.0452023 99.0853433 0.788486093 99.0853433"></polygon>
    </defs>
    <g id="Desktop" stroke="none" stroke-width="1" fill="none" fill-rule="evenodd">
        <g id="Homepage" transform="translate(-135.000000, -80.000000)">
            <g id="Menu" transform="translate(135.000000, 70.000000)">
                <g id="Logo" transform="translate(0.000000, 10.000000)">
                    <g id="Symbol">
                        <mask id="mask-2" fill="white">
                            <use xlink:href="#path-1"></use>
                        </mask>
                        <g id="Clip-2"></g>
                        <path d="M50.4010986,60.2049125 L40.749105,66.9786189 L40.749105,28.7889561 L40.7767369,28.6974829 C40.7583156,27.673296 40.3407661,23.4405113 34.8826885,19.5822193 C30.8560993,16.7356051 26.5002294,13.4972981 22.5212286,10.4794649 L36.6833705,0.538597227 C39.2024833,2.41497021 41.7522983,4.27883403 44.1547428,5.97695158 C55.076271,13.69979 57.3727931,24.3505521 57.00974,29.8420704 L57.00974,46.4346803 C57.00974,46.4346803 57.166321,51.4922873 56.1869219,54.3185741 C55.1261621,57.3762802 50.4010986,60.2049125 50.4010986,60.2049125" id="Fill-1" fill="#FFF" mask="url(#mask-2)"></path>
                        <path d="M23.441596,69.2358211 C17.8637969,65.3179026 17.4353993,61.0189872 17.4197071,59.9807705 L17.4448147,59.8871088 L17.4448147,14.8477151 L7.08481198,22.0707819 C7.08481198,22.0707819 3.8835994,24.4782063 2.52308406,27.6349246 C0.825186011,31.5830054 0.825186011,36.936806 0.825186011,36.936806 L0.825186011,58.8147612 C0.45171121,64.3931913 2.79691327,75.2055668 13.9650652,83.0477536 C17.0234786,85.1940364 21.1434706,87.1498206 24.5008207,89.2556224 C29.3410855,92.290898 33.5771999,96.1603981 35.4579123,99.0853433 L49.8257076,89.0675052 C48.7484368,87.449062 43.9638794,82.1968605 38.497495,78.7409008 C34.4857794,76.201715 27.2344052,71.8988309 23.441596,69.2358211" id="Fill-4" fill="#FFF" mask="url(#mask-2)"></path>
                    </g>
                </g>
            </g>
        </g>
    </g>
</svg>
